<mxfile host="app.diagrams.net" agent="Mozilla/5.0 (Windows NT 10.0; Win64; x64) AppleWebKit/537.36 (KHTML, like Gecko) Chrome/130.0.0.0 Safari/537.36" version="24.8.6">
  <diagram name="bÃ i 1" id="cj6cOVmmjR6k4V-jDSh4">
    <mxGraphModel dx="1050" dy="556" grid="1" gridSize="10" guides="1" tooltips="1" connect="1" arrows="1" fold="1" page="1" pageScale="1" pageWidth="827" pageHeight="1169" math="0" shadow="0">
      <root>
        <mxCell id="0" />
        <mxCell id="1" parent="0" />
        <mxCell id="nCcDoc-6Ycwu7yXRt5Zb-2" style="edgeStyle=orthogonalEdgeStyle;rounded=0;orthogonalLoop=1;jettySize=auto;html=1;" edge="1" parent="1" source="nCcDoc-6Ycwu7yXRt5Zb-1">
          <mxGeometry relative="1" as="geometry">
            <mxPoint x="420" y="300" as="targetPoint" />
          </mxGeometry>
        </mxCell>
        <mxCell id="nCcDoc-6Ycwu7yXRt5Zb-1" value="start" style="ellipse;whiteSpace=wrap;html=1;" vertex="1" parent="1">
          <mxGeometry x="360" y="160" width="120" height="80" as="geometry" />
        </mxCell>
        <mxCell id="nCcDoc-6Ycwu7yXRt5Zb-5" value="" style="edgeStyle=orthogonalEdgeStyle;rounded=0;orthogonalLoop=1;jettySize=auto;html=1;" edge="1" parent="1" source="nCcDoc-6Ycwu7yXRt5Zb-3" target="nCcDoc-6Ycwu7yXRt5Zb-4">
          <mxGeometry relative="1" as="geometry" />
        </mxCell>
        <mxCell id="nCcDoc-6Ycwu7yXRt5Zb-3" value="input a,b" style="shape=parallelogram;perimeter=parallelogramPerimeter;whiteSpace=wrap;html=1;fixedSize=1;" vertex="1" parent="1">
          <mxGeometry x="360" y="300" width="120" height="60" as="geometry" />
        </mxCell>
        <mxCell id="nCcDoc-6Ycwu7yXRt5Zb-7" value="" style="edgeStyle=orthogonalEdgeStyle;rounded=0;orthogonalLoop=1;jettySize=auto;html=1;" edge="1" parent="1" target="nCcDoc-6Ycwu7yXRt5Zb-6">
          <mxGeometry relative="1" as="geometry">
            <mxPoint x="450" y="405" as="sourcePoint" />
          </mxGeometry>
        </mxCell>
        <mxCell id="nCcDoc-6Ycwu7yXRt5Zb-4" value="a&amp;lt;b" style="rhombus;whiteSpace=wrap;html=1;" vertex="1" parent="1">
          <mxGeometry x="374" y="370" width="80" height="80" as="geometry" />
        </mxCell>
        <mxCell id="nCcDoc-6Ycwu7yXRt5Zb-12" style="edgeStyle=orthogonalEdgeStyle;rounded=0;orthogonalLoop=1;jettySize=auto;html=1;exitX=0.5;exitY=1;exitDx=0;exitDy=0;entryX=1;entryY=0.5;entryDx=0;entryDy=0;" edge="1" parent="1" source="nCcDoc-6Ycwu7yXRt5Zb-6" target="nCcDoc-6Ycwu7yXRt5Zb-10">
          <mxGeometry relative="1" as="geometry" />
        </mxCell>
        <mxCell id="nCcDoc-6Ycwu7yXRt5Zb-6" value="min=b" style="whiteSpace=wrap;html=1;" vertex="1" parent="1">
          <mxGeometry x="550" y="525" width="120" height="60" as="geometry" />
        </mxCell>
        <mxCell id="nCcDoc-6Ycwu7yXRt5Zb-11" style="edgeStyle=orthogonalEdgeStyle;rounded=0;orthogonalLoop=1;jettySize=auto;html=1;entryX=0;entryY=0.5;entryDx=0;entryDy=0;" edge="1" parent="1" source="nCcDoc-6Ycwu7yXRt5Zb-8" target="nCcDoc-6Ycwu7yXRt5Zb-10">
          <mxGeometry relative="1" as="geometry" />
        </mxCell>
        <mxCell id="nCcDoc-6Ycwu7yXRt5Zb-8" value="min=a" style="whiteSpace=wrap;html=1;" vertex="1" parent="1">
          <mxGeometry x="190" y="525" width="120" height="60" as="geometry" />
        </mxCell>
        <mxCell id="nCcDoc-6Ycwu7yXRt5Zb-10" value="end" style="ellipse;whiteSpace=wrap;html=1;" vertex="1" parent="1">
          <mxGeometry x="374" y="600" width="120" height="80" as="geometry" />
        </mxCell>
        <mxCell id="nCcDoc-6Ycwu7yXRt5Zb-13" style="edgeStyle=orthogonalEdgeStyle;rounded=0;orthogonalLoop=1;jettySize=auto;html=1;exitX=0;exitY=0.5;exitDx=0;exitDy=0;entryX=0.447;entryY=0.043;entryDx=0;entryDy=0;entryPerimeter=0;" edge="1" parent="1" source="nCcDoc-6Ycwu7yXRt5Zb-4" target="nCcDoc-6Ycwu7yXRt5Zb-8">
          <mxGeometry relative="1" as="geometry" />
        </mxCell>
      </root>
    </mxGraphModel>
  </diagram>
</mxfile>
